<svg width="688" height="188" viewBox="0 0 688 188" fill="none" xmlns="http://www.w3.org/2000/svg">
<path d="M166.5 47.8489L158 47.6215V41.1216C187.511 41.1286 203.5 39.6215 229 43.6215C251 49.6215 262.5 87.1213 229.5 97.1215C236.813 114.908 246.5 138.621 250 142.121L256 142.621V145.621H217L201.092 98.9811C200.5 97.715 197.092 97.9952 197.092 98.9811L195 141.621L202 142.121V145.621H156.5L156 141.121L164.5 140.621L166.5 47.8489Z" stroke="black" stroke-width="2.5" stroke-linejoin="round"/>
<path d="M197.494 94.0829C195.997 94.0829 196.295 77.4056 198 47.6213C210.5 47.6213 222.5 50.6213 221.429 70.8546C217.5 97.1213 209.217 94.0829 197.494 94.0829Z" stroke="black" stroke-width="2" stroke-linejoin="round"/>
<path d="M158 145.849L202 144.621V142.121L194.5 141.621L197 99.1214C198.411 97.7991 198.931 97.8258 201.5 99.1214L202 113.849L201.5 138.349C201.5 138.349 209 138.349 209.5 138.621C210 138.894 210 144.121 210 144.121V150.621C209.83 151.683 209.5 152.349 208.5 152.621L160.5 154.621C159.412 154.468 158.955 153.622 158.5 150.349L158 145.849Z" fill="black"/>
<path d="M218 145.949L255.977 145.349V141.949H249.981C241.162 125.216 236.875 115.42 229.993 97.4489L237.5 94.3489C255.648 81.3489 244.5 45.5 224.5 44C224.5 38.0002 252 47.5 254.978 65.9489C257.956 84.3978 254.026 92.8879 239.487 101.949L255.977 138.449L262.474 139.949C262.91 140.016 262.973 146.449 262.973 146.449C262.973 146.449 263.174 151.335 262.474 151.449L221.498 153.449L218 145.949Z" fill="black"/>
<path d="M204 94.3489C204.033 77.2643 204.26 65.851 205 48.3489L198 47.3489L197 94.3489L204 94.3489Z" fill="black" stroke="black" stroke-linejoin="round"/>
<path d="M287.5 94C287.5 51 330.5 37.3491 343 37.3491C376.721 35.7312 404.835 63.5411 403 92.3435C400.952 124.494 385 147.494 349 150.843C306.5 150.843 289.334 121.015 287.5 94Z" stroke="black" stroke-width="14" stroke-linejoin="round"/>
<path d="M346.49 32.5244C394.941 34.8319 409.077 71.0535 407.575 93.5C405.664 122.05 385.856 155.054 349.077 156.553C316.577 157.878 285.513 132.5 284.013 96.9997C282.283 56.0361 315.391 31.0432 346.49 32.5244Z" stroke="black" stroke-width="16" stroke-linejoin="round"/>
<path d="M331.019 167.503C271.454 155.539 267.5 100.001 270.996 78.9997C278.414 34.4356 324.344 12.8385 358.877 20.3164C409.862 31.357 424.177 75.1598 421 101.5C415.223 149.393 371.519 175.637 331.019 167.503Z" stroke="black" stroke-width="3" stroke-linejoin="round"/>
<path d="M314.995 127.5C290.415 100.038 303.166 74.0992 311.916 65.9569C334.994 44.4831 360.93 47.6526 380.5 65.9569C397.57 81.9232 388.546 111.917 377.995 123.998C358.811 145.964 324.394 138 314.995 127.5Z" stroke="black" stroke-width="3" stroke-linejoin="round"/>
<path d="M588.846 134.006C591.09 134.936 592.725 135.692 593.924 136.349H582.996L583.733 134.575L585.903 129.348C585.905 129.646 585.927 129.983 585.989 130.337C586.092 130.92 586.469 132.523 588.074 133.593L588.44 133.837L588.846 134.006Z" stroke="black" stroke-width="9"/>
<mask id="path-11-inside-1_511_2" fill="white">
<path d="M606 56L610.5 40L631 36.5L631.5 38L614.421 41.8333L620.316 53.7333L606 56Z"/>
</mask>
<path d="M610.5 40L608.649 29.1569L601.794 30.3273L599.911 37.0218L610.5 40ZM606 56L595.411 53.0218L590.762 69.5497L607.72 66.8647L606 56ZM620.316 53.7333L622.036 64.598L636.814 62.2581L630.173 48.8506L620.316 53.7333ZM614.421 41.8333L612.012 31.1004L598.348 34.1672L604.564 46.716L614.421 41.8333ZM631.5 38L633.909 48.733L645.784 46.0676L641.936 34.5215L631.5 38ZM631 36.5L641.436 33.0215L638.451 24.0687L629.149 25.6569L631 36.5ZM599.911 37.0218L595.411 53.0218L616.589 58.9782L621.089 42.9782L599.911 37.0218ZM607.72 66.8647L622.036 64.598L618.596 42.8687L604.28 45.1353L607.72 66.8647ZM630.173 48.8506L624.278 36.9506L604.564 46.716L610.459 58.616L630.173 48.8506ZM616.83 52.5663L633.909 48.733L629.091 27.267L612.012 31.1004L616.83 52.5663ZM641.936 34.5215L641.436 33.0215L620.564 39.9785L621.064 41.4785L641.936 34.5215ZM629.149 25.6569L608.649 29.1569L612.351 50.8431L632.851 47.3431L629.149 25.6569Z" fill="black" mask="url(#path-11-inside-1_511_2)"/>
<path d="M619.07 39.3491C634.493 84.4027 641.818 105.186 656.07 138.349" stroke="black" stroke-width="16" stroke-linejoin="round"/>
<path d="M608.998 47.7948C609.035 47.676 609.057 47.5531 609.064 47.4289L609.064 47.4287L609.064 47.4277L609.064 47.4233L609.065 47.4054L609.069 47.3344C609.072 47.2719 609.077 47.1798 609.084 47.0623C609.098 46.8272 609.117 46.4905 609.142 46.0852C609.193 45.2737 609.265 44.1908 609.352 43.0994C609.44 42.003 609.54 40.9184 609.647 40.0958C609.672 39.9084 609.695 39.7413 609.718 39.5953C609.81 39.5766 609.91 39.5567 610.017 39.5356C610.719 39.3976 611.705 39.2183 612.887 39.0137C615.25 38.6049 618.364 38.1005 621.483 37.6333C624.604 37.1656 627.713 36.7377 630.069 36.4799C631.251 36.3504 632.216 36.267 632.889 36.2403C632.935 36.2385 632.979 36.2369 633.021 36.2357C633.049 36.3077 633.079 36.3847 633.111 36.4666C633.36 37.1124 633.713 38.0401 634.157 39.2159C634.601 40.3931 635.135 41.8114 635.746 43.4362C636.356 45.0597 637.044 46.8893 637.798 48.8905C640.814 56.8896 644.872 67.5874 649.182 78.5841C653.492 89.578 658.059 100.884 662.093 110.095C664.109 114.699 665.998 118.795 667.66 122.073C669.301 125.312 670.778 127.871 671.978 129.31C672.007 129.344 672.037 129.377 672.068 129.408C674.17 131.516 675.891 132.717 678.029 133.957C678.847 134.431 679.679 134.886 680.597 135.389C682.052 136.185 683.725 137.101 685.905 138.399C686.263 139.249 686.333 139.954 686.261 140.526C686.179 141.188 685.895 141.772 685.477 142.274C684.583 143.349 683.247 143.855 682.591 143.849C664.769 143.567 654.357 143.076 635.609 141.88C635.18 141.462 634.891 140.661 635.053 139.649C635.233 138.522 635.918 137.596 636.984 137.291C637.005 137.285 637.026 137.279 637.046 137.272L643.041 135.272C643.424 135.144 643.74 134.867 643.916 134.503C644.092 134.139 644.114 133.72 643.976 133.339L635.482 109.839C635.262 109.231 634.677 108.832 634.031 108.85L597.531 109.85C596.881 109.868 596.316 110.302 596.133 110.926L591.133 127.926C590.954 128.534 591.177 129.189 591.689 129.562C592.915 130.454 594.171 131.264 595.351 132.025C595.535 132.143 595.716 132.26 595.896 132.376C597.249 133.252 598.475 134.067 599.535 134.933C601.616 136.634 602.903 138.405 603.073 140.922C603.068 140.935 603.057 140.96 603.032 140.997C602.964 141.102 602.833 141.245 602.626 141.395C602.425 141.542 602.193 141.664 601.976 141.747C601.745 141.834 601.603 141.849 601.572 141.849L601.566 141.849L601.572 143.349C601.566 141.849 601.565 141.849 601.565 141.849H601.564L601.559 141.849L601.539 141.849L601.458 141.85L601.144 141.851C600.869 141.852 600.466 141.853 599.951 141.854C598.923 141.857 597.452 141.861 595.685 141.863C592.15 141.867 587.428 141.865 582.677 141.843C577.925 141.821 573.151 141.779 569.511 141.702C567.76 141.665 566.283 141.62 565.2 141.566C565.645 141.004 566.275 140.319 567.098 139.557C569.412 137.417 573.118 134.802 578.142 132.737C578.457 132.607 578.718 132.375 578.883 132.078C582.704 125.2 587.369 113.311 592.493 98.6189C597.627 83.894 603.257 66.2489 608.998 47.7948ZM632.731 35.5169C632.73 35.5163 632.733 35.5225 632.74 35.5373C632.734 35.5249 632.731 35.5176 632.731 35.5169ZM603.077 140.91C603.077 140.91 603.076 140.912 603.076 140.914C603.076 140.911 603.077 140.91 603.077 140.91Z" stroke="black" stroke-width="3" stroke-linejoin="round"/>
<path d="M619.984 60.8791C618.999 58.9189 616.943 57.7317 614.753 57.8583C612.563 57.9848 610.657 59.4009 609.904 61.4615C605.368 73.8763 603.248 81.4286 599.218 95.7863C599.073 96.3026 598.925 96.8277 598.775 97.3622C598.27 99.1623 598.713 101.096 599.953 102.496C601.193 103.895 603.059 104.569 604.907 104.285C609.589 103.565 615.081 103.647 622.853 103.764C624.908 103.794 627.121 103.828 629.521 103.849C630.988 103.862 632.4 103.288 633.442 102.255C634.484 101.223 635.07 99.8163 635.07 98.3491V95.3491C635.07 94.6423 634.934 93.9421 634.669 93.2868C629.768 81.1694 626.614 74.0695 619.984 60.8791Z" stroke="black" stroke-width="11" stroke-linejoin="round"/>
<path d="M651.452 133.183L654.802 121.608C657.623 127.285 660.347 131.42 664.122 136.329C664.928 137.377 665.888 138.3 666.917 139.106L643.664 138.157L649.912 135.032L651.087 134.445L651.452 133.183Z" stroke="black" stroke-width="6"/>
<path d="M628.702 45.9985L627.385 41.4914C626.392 38.4908 633.171 37.3809 634.17 40.3857L635.288 43.392" stroke="black" stroke-width="2"/>
<path d="M61.5 73.5001L63 21.5001C96.7885 16.3134 109 26.5001 101.5 59C97.5 70.0001 77 78.0001 61.5 73.5001Z" stroke="black" stroke-width="7" stroke-linejoin="round"/>
<path d="M59.5 167.5L62 92.9999C95 90.4999 105.771 101.537 106 129.5C107.706 159.078 96.5325 167.577 59.5 167.5Z" stroke="black" stroke-width="7" stroke-linejoin="round"/>
<path d="M4 15.9535L5.1503 7.02899C58.6679 4.77394 99.6993 2.6117 111.745 5.13016C124.59 7.02898 136.5 12.5 141.28 25.8274C143.159 31.066 144.699 43.6669 141.28 51.4616C136 63.5 125.768 73.3374 107.746 81.6923C162.909 88.2084 154.306 180.401 84.4668 183.444C54.8177 184.736 37.2777 183.535 8.21776 182.291L9.55978 176.974L22.5965 164.252L28.348 37.4102C28.8617 25.5759 23.0683 21.3273 4 15.9535Z" stroke="black" stroke-width="7"/>
<path d="M542.656 127.724C545.885 124.422 551.394 119.029 557.656 109.224C560.656 112.224 560.656 114.224 559.656 118.224" stroke="black" stroke-width="3" stroke-linejoin="round"/>
<path d="M541.156 32.2241L544 64C523 36.5 495 25.5 469.5 48" stroke="black" stroke-width="6" stroke-linejoin="round"/>
<path d="M496.183 25.2241C511 24.7607 527.952 26.9965 545.3 33.6585L550 78.7244L519.023 49.5349C505 37 484 40 473.378 49.5349C457 63.5 450.949 101.247 473.378 126.436C489.75 143.305 511.067 143.305 526.943 135.863C557.208 119.49 553.596 100.96 562.169 110.56C567.334 116.344 554.455 136.535 530.928 150.236C514.059 160.158 485.15 164.224 456.651 141.224C439.156 122.224 433.156 108.724 434.156 78.7244C439 44.5 464.432 26.2167 496.183 25.2241Z" stroke="black" stroke-width="4" stroke-linejoin="round"/>
<path d="M544.632 34.2242C528 28.0002 516 24.1549 489 24.999C457.249 25.9915 422.506 60.5 436.5 107.5" stroke="black" stroke-width="4" stroke-linejoin="round"/>
<path d="M434.664 90.7241C442.656 165.724 528.664 175.224 560.664 116.224" stroke="black" stroke-width="3" stroke-linejoin="round"/>
<path d="M435.656 101.724C451.156 162.224 527.656 182.724 563.656 114.224" stroke="black" stroke-width="3" stroke-linejoin="round"/>
<path d="M493.5 39.5C476.496 40.5 452.399 53.2759 456.701 92" stroke="black" stroke-width="8" stroke-linejoin="round"/>
<path d="M455.156 91.7241C465.156 146.724 509.156 158.724 542.656 126.224" stroke="black" stroke-width="5" stroke-linejoin="round"/>
<path d="M493.5 39.5001C512 38.5 528.5 48.0001 547.5 73.0001" stroke="black" stroke-width="8"/>
</svg>
