<svg width="2492" height="707" viewBox="0 0 2492 707" fill="none" xmlns="http://www.w3.org/2000/svg">
<path d="M602.839 178.382L572.038 177.519V152.856C678.974 152.882 736.913 147.163 829.316 162.341C909.035 185.108 950.707 327.399 831.128 365.344C857.628 432.834 892.729 518.219 905.412 531.5L927.154 533.397V549.375H785.832L728.186 372.4C726.042 367.596 713.691 368.66 713.691 372.4L706.112 534.197L731.478 536.094V549.375H566.603L564.791 532.3L595.592 530.402L602.839 178.382Z" stroke="black" stroke-width="8" stroke-linejoin="round"/>
<path d="M715.148 353.814C709.726 353.814 710.803 290.533 716.982 177.519C762.278 177.519 805.762 188.902 801.881 265.676C787.644 365.344 757.629 353.814 715.148 353.814Z" stroke="black" stroke-width="8" stroke-linejoin="round"/>
<path d="M572.038 550.238L731.478 545.58V536.094L704.3 534.197L713.359 372.933C718.474 367.915 720.356 368.017 729.666 372.933L731.478 428.815L729.666 521.779C729.666 521.779 756.843 521.779 758.655 522.813C760.467 523.847 760.467 543.683 760.467 543.683V568.347C759.852 572.373 758.655 574.902 755.031 575.935L581.097 583.524C577.153 582.943 575.5 579.734 573.85 567.313L572.038 550.238Z" fill="black"/>
<path d="M789.455 550.617L927.071 548.341V535.439H905.342C873.387 471.947 857.851 434.779 832.913 366.587L860.116 354.824C925.878 305.496 885.481 169.469 813.009 163.778C813.009 141.012 912.658 177.058 923.45 247.062C934.241 317.065 919.998 349.28 867.317 383.662L927.071 522.159L950.611 527.85C952.19 528.106 952.421 552.514 952.421 552.514C952.421 552.514 953.15 571.053 950.611 571.487L802.13 579.075L789.455 550.617Z" fill="black"/>
<path d="M738.725 354.824C738.844 289.997 739.669 246.69 742.348 180.279L716.983 176.485L713.359 354.824L738.725 354.824Z" fill="black" stroke="black" stroke-linejoin="round"/>
<path d="M1041.3 353.5C1041.3 190.339 1197.11 138.541 1242.41 138.541C1364.6 132.402 1466.47 237.925 1459.83 347.215C1452.4 469.21 1394.6 556.482 1264.15 569.19C1110.15 569.19 1047.94 456.008 1041.3 353.5Z" stroke="black" stroke-width="57" stroke-linejoin="round"/>
<path d="M1255.06 120.234C1430.62 128.99 1481.84 266.431 1476.4 351.603C1469.48 459.935 1397.7 585.167 1264.43 590.856C1146.66 595.883 1034.1 499.585 1028.66 364.883C1022.39 209.448 1142.36 114.614 1255.06 120.234Z" stroke="black" stroke-width="57" stroke-linejoin="round"/>
<path d="M1198.99 632.402C983.15 587.008 968.823 376.27 981.492 296.582C1008.37 127.486 1174.81 45.5372 1299.94 73.9117C1484.69 115.805 1536.56 282.012 1525.05 381.958C1504.12 563.685 1345.75 663.267 1198.99 632.402Z" stroke="black" stroke-width="11" stroke-linejoin="round"/>
<path d="M1140.93 480.613C1051.86 376.41 1098.06 277.988 1129.77 247.092C1213.4 165.611 1307.38 177.638 1378.29 247.092C1440.15 307.675 1407.45 421.487 1369.22 467.327C1299.7 550.674 1174.98 520.456 1140.93 480.613Z" stroke="black" stroke-width="11" stroke-linejoin="round"/>
<mask id="path-10-inside-1_511_2" fill="white">
<path d="M2099.67 500.911L2148.57 377.592L2186.62 406.05L2164.87 409.844C2155.21 437.038 2135.16 486.492 2139.51 489.528C2169.3 502.467 2180.26 510.695 2179.37 531.267H2052.56C2051.44 523.413 2057.44 517.644 2099.67 500.911Z"/>
</mask>
<path d="M2148.57 377.592L2180.91 334.349L2124.39 292.071L2098.37 357.688L2148.57 377.592ZM2099.67 500.911L2119.56 551.114L2141.27 542.515L2149.87 520.815L2099.67 500.911ZM2052.56 531.267L1999.11 538.92L2005.75 585.267H2052.56V531.267ZM2179.37 531.267V585.267H2231.07L2233.32 533.613L2179.37 531.267ZM2139.51 489.528L2108.6 533.806L2113.04 536.903L2118 539.058L2139.51 489.528ZM2164.87 409.844L2155.59 356.648L2124.54 362.067L2113.99 391.763L2164.87 409.844ZM2186.62 406.05L2195.9 459.246L2319.14 437.738L2218.96 362.808L2186.62 406.05ZM2098.37 357.688L2049.47 481.007L2149.87 520.815L2198.77 397.495L2098.37 357.688ZM2079.78 450.708C2059.28 458.829 2041.78 466.408 2029.49 474.769C2023.02 479.171 2013.28 486.844 2006.36 499.246C1998.23 513.803 1997.57 528.186 1999.11 538.92L2106.02 523.613C2106.42 526.42 2106.75 530.86 2105.96 536.271C2105.13 541.89 2103.28 547.194 2100.67 551.88C2098.17 556.35 2095.45 559.419 2093.59 561.238C2091.78 563.009 2090.44 563.924 2090.23 564.068C2090.04 564.196 2091.71 563.084 2097.12 560.569C2102.25 558.18 2109.46 555.116 2119.56 551.114L2079.78 450.708ZM2052.56 585.267H2179.37V477.267H2052.56V585.267ZM2233.32 533.613C2234.3 510.933 2227.97 487.87 2208.81 469.028C2194.36 454.83 2175.18 446.146 2161.02 439.997L2118 539.058C2124.89 542.051 2129.22 544.147 2132.06 545.736C2134.94 547.351 2134.59 547.52 2133.09 546.041C2132.23 545.198 2131.04 543.866 2129.83 542.012C2128.59 540.127 2127.56 538.049 2126.8 535.89C2125.26 531.545 2125.43 528.649 2125.42 528.92L2233.32 533.613ZM2170.42 445.25C2188.18 457.649 2191.53 475.358 2192.23 479.517C2193.23 485.48 2192.85 489.961 2192.74 491.136C2192.49 493.913 2192.07 495.035 2192.56 493.14C2193.37 490.012 2195.12 484.513 2197.88 476.661C2200.53 469.128 2203.64 460.746 2206.82 452.198C2209.92 443.89 2213.17 435.214 2215.76 427.925L2113.99 391.763C2111.75 398.072 2108.87 405.774 2105.62 414.483C2102.47 422.95 2099.02 432.221 2096 440.83C2093.08 449.12 2090.03 458.253 2088 466.101C2087.07 469.694 2085.72 475.39 2085.17 481.559C2084.91 484.43 2084.54 490.311 2085.71 497.346C2086.59 502.575 2090.29 521.027 2108.6 533.806L2170.42 445.25ZM2174.16 463.04L2195.9 459.246L2177.33 352.854L2155.59 356.648L2174.16 463.04ZM2218.96 362.808L2180.91 334.349L2116.23 420.834L2154.27 449.292L2218.96 362.808Z" fill="black" mask="url(#path-10-inside-1_511_2)"/>
<path d="M2209.79 196.285L2218.41 164.201L2231.86 192.627L2209.79 196.285Z" stroke="black" stroke-width="21"/>
<path d="M2242.78 146.13C2298.67 317.084 2325.21 395.945 2376.86 521.78" stroke="black" stroke-width="59" stroke-linejoin="round"/>
<path d="M2206.37 178.053C2206.49 177.634 2206.57 177.202 2206.59 176.765L2206.59 176.765L2206.59 176.761L2206.59 176.744L2206.59 176.676L2206.61 176.406C2206.62 176.169 2206.64 175.819 2206.66 175.373C2206.71 174.48 2206.78 173.202 2206.87 171.663C2207.06 168.582 2207.32 164.47 2207.63 160.326C2207.95 156.163 2208.32 152.04 2208.71 148.908C2208.8 148.136 2208.89 147.452 2208.99 146.861C2209.31 146.791 2209.66 146.718 2210.04 146.64C2212.58 146.117 2216.15 145.437 2220.43 144.661C2228.99 143.111 2240.27 141.197 2251.57 139.424C2262.88 137.65 2274.14 136.027 2282.67 135.049C2286.96 134.558 2290.44 134.243 2292.87 134.142C2292.99 134.137 2293.11 134.132 2293.23 134.129C2293.34 134.414 2293.45 134.719 2293.57 135.045C2294.48 137.497 2295.75 141.018 2297.36 145.48C2298.97 149.943 2300.9 155.321 2303.11 161.481C2305.33 167.645 2307.82 174.592 2310.56 182.19C2321.48 212.541 2336.19 253.132 2351.81 294.856C2367.42 336.571 2383.97 379.465 2398.58 414.41C2405.89 431.879 2412.73 447.414 2418.75 459.845C2424.7 472.133 2430.04 481.82 2434.37 487.262C2434.44 487.352 2434.52 487.44 2434.6 487.526C2434.63 487.561 2434.66 487.595 2434.69 487.629C2442.31 495.622 2448.54 500.182 2456.3 504.891C2459.27 506.694 2462.29 508.422 2465.61 510.329C2470.89 513.352 2476.94 516.824 2484.85 521.755C2487.62 528.57 2485.99 533.499 2483.29 536.893C2480.02 541.005 2475.21 542.863 2472.96 542.842C2408.42 541.772 2370.7 539.908 2302.82 535.378C2301.25 533.753 2300.16 530.616 2300.77 526.643C2301.45 522.187 2304.02 518.689 2307.78 517.564C2307.81 517.554 2307.85 517.543 2307.88 517.532C2307.92 517.518 2307.97 517.502 2308.02 517.487L2329.74 509.898C2332.6 508.899 2334.11 505.775 2333.12 502.911L2302.34 413.742C2301.56 411.469 2299.39 409.97 2296.98 410.038L2164.72 413.833C2162.32 413.902 2160.24 415.527 2159.58 417.843L2141.47 482.349C2140.86 484.521 2141.63 486.845 2143.43 488.212C2147.87 491.596 2152.43 494.671 2156.7 497.557C2157.37 498.006 2158.02 498.451 2158.67 498.891C2163.58 502.212 2168.02 505.304 2171.86 508.589C2179.4 515.045 2184.15 521.842 2184.76 531.602C2184.75 531.576 2184.75 531.577 2184.75 531.605C2184.71 531.738 2184.48 532.482 2183.06 533.565C2182.33 534.119 2181.51 534.577 2180.74 534.883C2180.36 535.033 2180.03 535.132 2179.77 535.19C2179.51 535.249 2179.38 535.253 2179.37 535.253H2179.37L2179.35 535.253L2179.37 540.753C2179.35 535.253 2179.35 535.253 2179.35 535.253H2179.35L2179.33 535.253L2179.25 535.253L2178.96 535.254L2177.82 535.259C2176.83 535.262 2175.37 535.267 2173.5 535.273C2169.78 535.283 2164.45 535.296 2158.04 535.304C2145.23 535.319 2128.12 535.313 2110.91 535.23C2093.69 535.148 2076.39 534.988 2063.21 534.695C2056.76 534.552 2051.34 534.379 2047.41 534.169C2049.04 531.955 2051.42 529.207 2054.59 526.136C2062.98 518.013 2076.4 508.099 2094.58 500.271C2095.73 499.776 2096.68 498.903 2097.27 497.797C2111.1 471.727 2128 426.638 2146.56 370.89C2165.17 315.023 2185.56 248.075 2206.37 178.053ZM2292.19 131.426C2292.19 131.424 2292.2 131.446 2292.22 131.497C2292.2 131.454 2292.19 131.428 2292.19 131.426ZM2044.93 538.341C2044.93 538.339 2044.93 538.336 2044.93 538.334C2044.93 538.363 2044.92 538.366 2044.93 538.341Z" stroke="black" stroke-width="11" stroke-linejoin="round"/>
<path d="M2251.48 225.629C2247.89 218.147 2240.14 213.568 2231.85 214.032C2223.57 214.496 2216.38 219.91 2213.64 227.746C2210.54 236.632 2207.59 244.973 2204.72 253.05C2192.27 288.166 2181.58 318.3 2168.63 366.59C2166.83 373.305 2168.55 380.475 2173.21 385.635C2177.87 390.796 2184.83 393.244 2191.69 392.139C2208.52 389.427 2228.26 389.736 2256.39 390.177C2263.85 390.294 2271.9 390.42 2280.64 390.501C2286.11 390.552 2291.37 388.415 2295.26 384.565C2299.15 380.716 2301.33 375.472 2301.33 370.002V358.619C2301.33 356.093 2300.87 353.589 2299.96 351.232C2294.39 336.821 2289.81 323.571 2285.26 310.416C2276.31 284.503 2267.48 258.958 2251.48 225.629Z" stroke="black" stroke-width="41" stroke-linejoin="round"/>
<path d="M2360.76 502.077L2372.43 459.854C2382.36 480.506 2392.07 495.853 2405.38 513.982C2408.29 517.946 2411.76 521.444 2415.47 524.504L2332.55 520.96L2355.01 509.202L2359.43 506.887L2360.76 502.077Z" stroke="black" stroke-width="23"/>
<path d="M2277.69 171.361L2272.91 154.259C2269.31 142.873 2293.88 138.662 2297.5 150.064L2301.55 161.471" stroke="black" stroke-width="8"/>
<path d="M222.358 275.714L227.794 78.4032C350.231 58.7227 394.481 97.3752 367.303 220.695C352.809 262.434 278.525 292.789 222.358 275.714Z" stroke="black" stroke-width="24" stroke-linejoin="round"/>
<path d="M215.111 632.391L224.17 349.705C343.75 340.219 382.782 382.1 383.61 488.202C389.794 600.436 349.303 632.685 215.111 632.391Z" stroke="black" stroke-width="24" stroke-linejoin="round"/>
<path d="M14 57.3569L18.1683 23.4933C212.096 14.9367 360.778 6.73216 404.426 16.2883C450.972 23.4933 494.13 44.2528 511.452 94.8228C518.261 114.7 523.841 162.514 511.452 192.09C492.319 237.769 455.241 275.097 389.938 306.799C589.828 331.524 558.652 681.344 305.582 692.891C198.144 697.792 134.586 693.237 29.2836 688.515L34.1465 668.341L81.3867 620.067L102.228 138.773C104.089 93.8686 83.0964 77.7474 14 57.3569Z" stroke="black" stroke-width="24"/>
<path d="M1965.89 481.464C1977.59 468.934 1997.55 448.469 2020.24 411.267C2031.11 422.65 2031.11 430.239 2027.49 445.417" stroke="black" stroke-width="11" stroke-linejoin="round"/>
<path d="M1960.45 119.095L1982.5 270C1906.4 165.653 1793.2 93.5807 1700.8 178.956" stroke="black" stroke-width="17" stroke-linejoin="round"/>
<path d="M1797.49 92.5339C1851.18 90.7753 1912.6 99.259 1975.47 124.538L1992.5 295.538L1880.25 184.78C1829.44 137.217 1753.34 148.6 1714.85 184.78C1655.5 237.77 1633.58 380.999 1714.85 476.577C1774.18 540.585 1851.42 540.585 1908.95 512.347C2018.62 450.222 2005.53 379.909 2036.6 416.336C2055.31 438.282 2008.64 514.897 1923.39 566.883C1862.26 604.534 1757.51 619.963 1654.24 532.69C1590.84 460.596 1569.1 409.371 1572.73 295.538C1590.28 165.675 1682.43 96.3 1797.49 92.5339Z" stroke="black" stroke-width="12" stroke-linejoin="round"/>
<path d="M1973.05 126.684C1912.78 103.068 1869.3 88.4769 1771.46 91.6797C1656.41 95.4458 1530.51 226.386 1581.22 404.725" stroke="black" stroke-width="13" stroke-linejoin="round"/>
<path d="M1571.57 344.07C1600.53 628.653 1916.04 665.872 2032 442" stroke="black" stroke-width="15" stroke-linejoin="round"/>
<path d="M1576.16 382.809C1632.33 612.373 1909.54 690.159 2039.99 430.24" stroke="black" stroke-width="3" stroke-linejoin="round"/>
<path d="M1787.76 146.703C1726.15 150.497 1638.83 198.975 1654.42 345.911" stroke="black" stroke-width="23" stroke-linejoin="round"/>
<path d="M1650.82 344.865C1687.06 553.559 1846.5 599.092 1967.89 475.773" stroke="black" stroke-width="17" stroke-linejoin="round"/>
<path d="M1787.77 146.703C1854.8 142.909 1914.59 178.956 1983.44 273.817" stroke="black" stroke-width="27"/>
</svg>
